<mxfile host="app.diagrams.net" modified="2021-02-05T03:27:28.369Z" agent="5.0 (Windows NT 10.0) AppleWebKit/537.36 (KHTML, like Gecko) Chrome/88.0.4324.104 Safari/537.36" etag="LIHJRSUXtDhlSeHsZTgV" version="14.2.9" type="github">
  <diagram id="1huoRkWd-wgOX6W86DVF" name="Page-1">
    <mxGraphModel dx="644" dy="653" grid="1" gridSize="10" guides="1" tooltips="1" connect="1" arrows="1" fold="1" page="1" pageScale="1" pageWidth="827" pageHeight="1169" math="0" shadow="0">
      <root>
        <mxCell id="0" />
        <mxCell id="1" parent="0" />
        <mxCell id="xq2FErhegeyca6-r9yFb-1" value="" style="endArrow=none;html=1;edgeStyle=orthogonalEdgeStyle;sketch=1;disableMultiStroke=1;dashed=1;strokeWidth=2;strokeColor=#8E8AFF;" parent="1" edge="1">
          <mxGeometry width="50" height="50" relative="1" as="geometry">
            <mxPoint x="500" y="303" as="sourcePoint" />
            <mxPoint x="500" y="303" as="targetPoint" />
            <Array as="points">
              <mxPoint x="500" y="293" />
              <mxPoint x="1330" y="293" />
              <mxPoint x="1330" y="580" />
              <mxPoint x="500" y="580" />
            </Array>
          </mxGeometry>
        </mxCell>
        <mxCell id="xq2FErhegeyca6-r9yFb-2" style="edgeStyle=orthogonalEdgeStyle;rounded=0;sketch=1;disableMultiStroke=1;orthogonalLoop=1;jettySize=auto;html=1;entryX=0.5;entryY=0;entryDx=0;entryDy=0;strokeColor=#000000;fontFamily=KyoboHand;fontSource=https%3A%2F%2Fcdn.jsdelivr.net%2Fgh%2Fprojectnoonnu%2Fnoonfonts_20-04%401.0%2FKyoboHand.woff;fontSize=14;fontColor=#292929;" parent="1" source="xq2FErhegeyca6-r9yFb-6" target="xq2FErhegeyca6-r9yFb-23" edge="1">
          <mxGeometry relative="1" as="geometry" />
        </mxCell>
        <mxCell id="xq2FErhegeyca6-r9yFb-3" value="No" style="edgeLabel;html=1;align=center;verticalAlign=middle;resizable=0;points=[];fontSize=14;fontFamily=KyoboHand;" parent="xq2FErhegeyca6-r9yFb-2" vertex="1" connectable="0">
          <mxGeometry x="-0.0593" y="1" relative="1" as="geometry">
            <mxPoint x="-42" y="1" as="offset" />
          </mxGeometry>
        </mxCell>
        <mxCell id="xq2FErhegeyca6-r9yFb-4" style="edgeStyle=orthogonalEdgeStyle;rounded=0;sketch=1;disableMultiStroke=1;orthogonalLoop=1;jettySize=auto;html=1;entryX=0.5;entryY=0;entryDx=0;entryDy=0;strokeColor=#000000;fontFamily=KyoboHand;fontSource=https%3A%2F%2Fcdn.jsdelivr.net%2Fgh%2Fprojectnoonnu%2Fnoonfonts_20-04%401.0%2FKyoboHand.woff;fontSize=14;fontColor=#292929;" parent="1" source="xq2FErhegeyca6-r9yFb-6" target="xq2FErhegeyca6-r9yFb-31" edge="1">
          <mxGeometry relative="1" as="geometry" />
        </mxCell>
        <mxCell id="xq2FErhegeyca6-r9yFb-5" value="Yes" style="edgeLabel;html=1;align=center;verticalAlign=middle;resizable=0;points=[];fontSize=14;fontFamily=KyoboHand;" parent="xq2FErhegeyca6-r9yFb-4" vertex="1" connectable="0">
          <mxGeometry x="-0.6427" y="2" relative="1" as="geometry">
            <mxPoint x="-2" y="-27" as="offset" />
          </mxGeometry>
        </mxCell>
        <mxCell id="xq2FErhegeyca6-r9yFb-6" value="등록된 가게" style="rhombus;whiteSpace=wrap;html=1;rounded=0;fontSize=14;fontColor=#292929;strokeColor=#292929;fontFamily=KyoboHand;fontSource=https%3A%2F%2Fcdn.jsdelivr.net%2Fgh%2Fprojectnoonnu%2Fnoonfonts_20-04%401.0%2FKyoboHand.woff;sketch=1;disableMultiStroke=1;" parent="1" vertex="1">
          <mxGeometry x="880" y="310" width="170" height="80" as="geometry" />
        </mxCell>
        <mxCell id="xq2FErhegeyca6-r9yFb-7" style="edgeStyle=orthogonalEdgeStyle;rounded=0;sketch=1;disableMultiStroke=1;orthogonalLoop=1;jettySize=auto;html=1;entryX=0;entryY=0.5;entryDx=0;entryDy=0;strokeColor=#000000;fontFamily=KyoboHand;fontSource=https%3A%2F%2Fcdn.jsdelivr.net%2Fgh%2Fprojectnoonnu%2Fnoonfonts_20-04%401.0%2FKyoboHand.woff;fontSize=14;fontColor=#292929;" parent="1" source="xq2FErhegeyca6-r9yFb-8" target="xq2FErhegeyca6-r9yFb-15" edge="1">
          <mxGeometry relative="1" as="geometry" />
        </mxCell>
        <mxCell id="xq2FErhegeyca6-r9yFb-8" value="메시지 이벤트" style="ellipse;whiteSpace=wrap;html=1;fontSize=14;labelBackgroundColor=none;fillColor=#ffe6cc;sketch=1;shadow=0;sketchStyle=rough;disableMultiStrokeFill=0;disableMultiStroke=1;simplification=0;strokeColor=#d79b00;fontFamily=KyoboHand;fontSource=https%3A%2F%2Fcdn.jsdelivr.net%2Fgh%2Fprojectnoonnu%2Fnoonfonts_20-04%401.0%2FKyoboHand.woff;" parent="1" vertex="1">
          <mxGeometry x="320" y="310" width="120" height="80" as="geometry" />
        </mxCell>
        <mxCell id="WAtK6OKdEQnZyJ43ct-P-7" style="edgeStyle=orthogonalEdgeStyle;rounded=0;sketch=1;disableMultiStroke=1;disableMultiStrokeFill=0;orthogonalLoop=1;jettySize=auto;html=1;entryX=0.5;entryY=0;entryDx=0;entryDy=0;startArrow=classic;startFill=1;fontFamily=KyoboHand;fontSource=https%3A%2F%2Fcdn.jsdelivr.net%2Fgh%2Fprojectnoonnu%2Fnoonfonts_20-04%401.0%2FKyoboHand.woff;" edge="1" parent="1" source="xq2FErhegeyca6-r9yFb-10" target="WAtK6OKdEQnZyJ43ct-P-6">
          <mxGeometry relative="1" as="geometry" />
        </mxCell>
        <mxCell id="WAtK6OKdEQnZyJ43ct-P-10" style="edgeStyle=orthogonalEdgeStyle;rounded=0;sketch=1;disableMultiStroke=1;disableMultiStrokeFill=0;orthogonalLoop=1;jettySize=auto;html=1;entryX=1;entryY=0.5;entryDx=0;entryDy=0;startArrow=none;startFill=0;fontFamily=KyoboHand;fontSource=https%3A%2F%2Fcdn.jsdelivr.net%2Fgh%2Fprojectnoonnu%2Fnoonfonts_20-04%401.0%2FKyoboHand.woff;" edge="1" parent="1" source="xq2FErhegeyca6-r9yFb-10" target="xq2FErhegeyca6-r9yFb-33">
          <mxGeometry relative="1" as="geometry" />
        </mxCell>
        <mxCell id="xq2FErhegeyca6-r9yFb-10" value="구글 시트 작성" style="whiteSpace=wrap;html=1;rounded=0;fontSize=14;fontFamily=KyoboHand;fontSource=https%3A%2F%2Fcdn.jsdelivr.net%2Fgh%2Fprojectnoonnu%2Fnoonfonts_20-04%401.0%2FKyoboHand.woff;sketch=1;disableMultiStroke=1;fillColor=#ffe6cc;strokeColor=#d79b00;" parent="1" vertex="1">
          <mxGeometry x="760" y="730" width="120" height="60" as="geometry" />
        </mxCell>
        <mxCell id="xq2FErhegeyca6-r9yFb-11" value="" style="edgeStyle=orthogonalEdgeStyle;rounded=0;orthogonalLoop=1;jettySize=auto;html=1;fontSize=14;fontColor=#292929;fontFamily=KyoboHand;fontSource=https%3A%2F%2Fcdn.jsdelivr.net%2Fgh%2Fprojectnoonnu%2Fnoonfonts_20-04%401.0%2FKyoboHand.woff;sketch=1;disableMultiStroke=1;" parent="1" source="xq2FErhegeyca6-r9yFb-15" target="xq2FErhegeyca6-r9yFb-18" edge="1">
          <mxGeometry relative="1" as="geometry" />
        </mxCell>
        <mxCell id="xq2FErhegeyca6-r9yFb-12" value="Yes" style="edgeLabel;html=1;align=center;verticalAlign=middle;resizable=0;points=[];fontSize=14;fontColor=#292929;fontFamily=KyoboHand;fontSource=https%3A%2F%2Fcdn.jsdelivr.net%2Fgh%2Fprojectnoonnu%2Fnoonfonts_20-04%401.0%2FKyoboHand.woff;" parent="xq2FErhegeyca6-r9yFb-11" vertex="1" connectable="0">
          <mxGeometry x="-0.1556" relative="1" as="geometry">
            <mxPoint as="offset" />
          </mxGeometry>
        </mxCell>
        <mxCell id="xq2FErhegeyca6-r9yFb-13" value="" style="edgeStyle=orthogonalEdgeStyle;rounded=0;orthogonalLoop=1;jettySize=auto;html=1;fontSize=14;fontColor=#292929;fontFamily=KyoboHand;fontSource=https%3A%2F%2Fcdn.jsdelivr.net%2Fgh%2Fprojectnoonnu%2Fnoonfonts_20-04%401.0%2FKyoboHand.woff;entryX=0;entryY=0.5;entryDx=0;entryDy=0;exitX=1;exitY=0.5;exitDx=0;exitDy=0;sketch=1;disableMultiStroke=1;" parent="1" source="xq2FErhegeyca6-r9yFb-15" target="xq2FErhegeyca6-r9yFb-6" edge="1">
          <mxGeometry relative="1" as="geometry">
            <Array as="points" />
          </mxGeometry>
        </mxCell>
        <mxCell id="xq2FErhegeyca6-r9yFb-14" value="No / After Yes" style="edgeLabel;html=1;align=center;verticalAlign=middle;resizable=0;points=[];fontSize=14;fontFamily=KyoboHand;fontSource=https%3A%2F%2Fcdn.jsdelivr.net%2Fgh%2Fprojectnoonnu%2Fnoonfonts_20-04%401.0%2FKyoboHand.woff;" parent="xq2FErhegeyca6-r9yFb-13" vertex="1" connectable="0">
          <mxGeometry x="-0.2331" relative="1" as="geometry">
            <mxPoint x="-6.19" as="offset" />
          </mxGeometry>
        </mxCell>
        <mxCell id="xq2FErhegeyca6-r9yFb-15" value="알림이 존재?" style="rhombus;whiteSpace=wrap;html=1;rounded=0;fontSize=14;fontColor=#292929;strokeColor=#292929;fontFamily=KyoboHand;fontSource=https%3A%2F%2Fcdn.jsdelivr.net%2Fgh%2Fprojectnoonnu%2Fnoonfonts_20-04%401.0%2FKyoboHand.woff;sketch=1;disableMultiStroke=1;" parent="1" vertex="1">
          <mxGeometry x="500" y="310" width="170" height="80" as="geometry" />
        </mxCell>
        <mxCell id="xq2FErhegeyca6-r9yFb-16" style="edgeStyle=orthogonalEdgeStyle;rounded=0;orthogonalLoop=1;jettySize=auto;html=1;entryX=0;entryY=0.5;entryDx=0;entryDy=0;fontSize=14;fontColor=#292929;fontFamily=KyoboHand;fontSource=https%3A%2F%2Fcdn.jsdelivr.net%2Fgh%2Fprojectnoonnu%2Fnoonfonts_20-04%401.0%2FKyoboHand.woff;sketch=1;disableMultiStroke=1;" parent="1" source="xq2FErhegeyca6-r9yFb-18" target="xq2FErhegeyca6-r9yFb-25" edge="1">
          <mxGeometry relative="1" as="geometry" />
        </mxCell>
        <mxCell id="xq2FErhegeyca6-r9yFb-17" value="이전 알림 정보" style="edgeLabel;html=1;align=center;verticalAlign=middle;resizable=0;points=[];fontSize=14;fontColor=#292929;fontFamily=KyoboHand;fontSource=https%3A%2F%2Fcdn.jsdelivr.net%2Fgh%2Fprojectnoonnu%2Fnoonfonts_20-04%401.0%2FKyoboHand.woff;" parent="xq2FErhegeyca6-r9yFb-16" vertex="1" connectable="0">
          <mxGeometry x="-0.0598" y="1" relative="1" as="geometry">
            <mxPoint as="offset" />
          </mxGeometry>
        </mxCell>
        <mxCell id="xq2FErhegeyca6-r9yFb-18" value="이미 존재하는&lt;br&gt;알림 제거" style="whiteSpace=wrap;html=1;rounded=0;fontSize=14;fillColor=#ffe6cc;strokeColor=#d79b00;fontFamily=KyoboHand;fontSource=https%3A%2F%2Fcdn.jsdelivr.net%2Fgh%2Fprojectnoonnu%2Fnoonfonts_20-04%401.0%2FKyoboHand.woff;sketch=1;disableMultiStroke=1;" parent="1" vertex="1">
          <mxGeometry x="525" y="490" width="120" height="60" as="geometry" />
        </mxCell>
        <mxCell id="xq2FErhegeyca6-r9yFb-19" value="" style="edgeStyle=orthogonalEdgeStyle;rounded=0;orthogonalLoop=1;jettySize=auto;html=1;fontSize=14;fontColor=#292929;fontFamily=KyoboHand;fontSource=https%3A%2F%2Fcdn.jsdelivr.net%2Fgh%2Fprojectnoonnu%2Fnoonfonts_20-04%401.0%2FKyoboHand.woff;entryX=1;entryY=0.5;entryDx=0;entryDy=0;sketch=1;disableMultiStroke=1;" parent="1" source="xq2FErhegeyca6-r9yFb-23" target="xq2FErhegeyca6-r9yFb-25" edge="1">
          <mxGeometry relative="1" as="geometry">
            <Array as="points">
              <mxPoint x="940" y="520" />
              <mxPoint x="940" y="520" />
            </Array>
          </mxGeometry>
        </mxCell>
        <mxCell id="xq2FErhegeyca6-r9yFb-20" value="1. 기타로 기록" style="edgeLabel;html=1;align=center;verticalAlign=middle;resizable=0;points=[];fontSize=14;fontColor=#292929;fontFamily=KyoboHand;fontSource=https%3A%2F%2Fcdn.jsdelivr.net%2Fgh%2Fprojectnoonnu%2Fnoonfonts_20-04%401.0%2FKyoboHand.woff;" parent="xq2FErhegeyca6-r9yFb-19" vertex="1" connectable="0">
          <mxGeometry x="0.3905" relative="1" as="geometry">
            <mxPoint x="97.59" as="offset" />
          </mxGeometry>
        </mxCell>
        <mxCell id="xq2FErhegeyca6-r9yFb-21" value="" style="edgeStyle=orthogonalEdgeStyle;rounded=0;orthogonalLoop=1;jettySize=auto;html=1;fontSize=14;fontColor=#292929;fontFamily=KyoboHand;fontSource=https%3A%2F%2Fcdn.jsdelivr.net%2Fgh%2Fprojectnoonnu%2Fnoonfonts_20-04%401.0%2FKyoboHand.woff;exitX=0.495;exitY=0.884;exitDx=0;exitDy=0;exitPerimeter=0;sketch=1;disableMultiStroke=1;" parent="1" source="xq2FErhegeyca6-r9yFb-23" target="xq2FErhegeyca6-r9yFb-27" edge="1">
          <mxGeometry relative="1" as="geometry">
            <mxPoint x="1227.5" y="590" as="sourcePoint" />
          </mxGeometry>
        </mxCell>
        <mxCell id="xq2FErhegeyca6-r9yFb-22" value="2. 수정 후 기록" style="edgeLabel;html=1;align=center;verticalAlign=middle;resizable=0;points=[];fontSize=14;fontColor=#292929;fontFamily=KyoboHand;fontSource=https%3A%2F%2Fcdn.jsdelivr.net%2Fgh%2Fprojectnoonnu%2Fnoonfonts_20-04%401.0%2FKyoboHand.woff;" parent="xq2FErhegeyca6-r9yFb-21" vertex="1" connectable="0">
          <mxGeometry x="0.1553" y="2" relative="1" as="geometry">
            <mxPoint x="-2" y="-16.76" as="offset" />
          </mxGeometry>
        </mxCell>
        <mxCell id="meLbnnTgsmAjTQD1LtVd-2" style="edgeStyle=orthogonalEdgeStyle;rounded=0;orthogonalLoop=1;jettySize=auto;html=1;entryX=0.5;entryY=0;entryDx=0;entryDy=0;sketch=1;disableMultiStroke=1;" parent="1" source="xq2FErhegeyca6-r9yFb-23" target="meLbnnTgsmAjTQD1LtVd-1" edge="1">
          <mxGeometry relative="1" as="geometry" />
        </mxCell>
        <mxCell id="meLbnnTgsmAjTQD1LtVd-3" value="3. 가게 등록 후 기록" style="edgeLabel;html=1;align=center;verticalAlign=middle;resizable=0;points=[];" parent="meLbnnTgsmAjTQD1LtVd-2" vertex="1" connectable="0">
          <mxGeometry x="0.5187" y="-3" relative="1" as="geometry">
            <mxPoint x="3" y="-11.5" as="offset" />
          </mxGeometry>
        </mxCell>
        <mxCell id="xq2FErhegeyca6-r9yFb-23" value="1 &#39;기타&#39;로 기록&lt;br&gt;2 수정 후 기록&lt;br&gt;3 가게 등록 후 기록" style="shape=document;whiteSpace=wrap;html=1;boundedLbl=1;rounded=0;fontSize=14;size=0.2222222222222222;fillColor=#ffe6cc;strokeColor=#d79b00;fontFamily=KyoboHand;fontSource=https%3A%2F%2Fcdn.jsdelivr.net%2Fgh%2Fprojectnoonnu%2Fnoonfonts_20-04%401.0%2FKyoboHand.woff;sketch=1;disableMultiStroke=1;" parent="1" vertex="1">
          <mxGeometry x="1150" y="475" width="155" height="90" as="geometry" />
        </mxCell>
        <mxCell id="xq2FErhegeyca6-r9yFb-24" style="edgeStyle=orthogonalEdgeStyle;rounded=0;orthogonalLoop=1;jettySize=auto;html=1;fontSize=14;fontColor=#292929;fontFamily=KyoboHand;fontSource=https%3A%2F%2Fcdn.jsdelivr.net%2Fgh%2Fprojectnoonnu%2Fnoonfonts_20-04%401.0%2FKyoboHand.woff;sketch=1;disableMultiStroke=1;" parent="1" source="xq2FErhegeyca6-r9yFb-25" target="xq2FErhegeyca6-r9yFb-10" edge="1">
          <mxGeometry relative="1" as="geometry" />
        </mxCell>
        <mxCell id="xq2FErhegeyca6-r9yFb-25" value="내용: 메시지 내용&lt;br&gt;금액: 메시지 금액&lt;br&gt;종류: 기타" style="whiteSpace=wrap;html=1;rounded=0;fontSize=14;fontColor=#292929;fontFamily=KyoboHand;fontSource=https%3A%2F%2Fcdn.jsdelivr.net%2Fgh%2Fprojectnoonnu%2Fnoonfonts_20-04%401.0%2FKyoboHand.woff;sketch=1;disableMultiStroke=1;" parent="1" vertex="1">
          <mxGeometry x="760" y="490" width="120" height="60" as="geometry" />
        </mxCell>
        <mxCell id="xq2FErhegeyca6-r9yFb-26" value="" style="edgeStyle=orthogonalEdgeStyle;rounded=0;orthogonalLoop=1;jettySize=auto;html=1;fontSize=14;fontColor=#292929;fontFamily=KyoboHand;fontSource=https%3A%2F%2Fcdn.jsdelivr.net%2Fgh%2Fprojectnoonnu%2Fnoonfonts_20-04%401.0%2FKyoboHand.woff;sketch=1;disableMultiStroke=1;" parent="1" source="xq2FErhegeyca6-r9yFb-27" target="xq2FErhegeyca6-r9yFb-31" edge="1">
          <mxGeometry relative="1" as="geometry" />
        </mxCell>
        <mxCell id="xq2FErhegeyca6-r9yFb-27" value="수정 폼을 유저에게서&lt;br&gt;입력받는다" style="shape=document;whiteSpace=wrap;html=1;boundedLbl=1;rounded=0;fontSize=14;size=0.2222222222222222;fillColor=#ffe6cc;strokeColor=#d79b00;fontFamily=KyoboHand;fontSource=https%3A%2F%2Fcdn.jsdelivr.net%2Fgh%2Fprojectnoonnu%2Fnoonfonts_20-04%401.0%2FKyoboHand.woff;sketch=1;disableMultiStroke=1;" parent="1" vertex="1">
          <mxGeometry x="1150" y="715" width="155" height="90" as="geometry" />
        </mxCell>
        <mxCell id="xq2FErhegeyca6-r9yFb-28" style="edgeStyle=orthogonalEdgeStyle;rounded=0;orthogonalLoop=1;jettySize=auto;html=1;entryX=1;entryY=0.5;entryDx=0;entryDy=0;fontSize=14;fontColor=#292929;fontFamily=KyoboHand;fontSource=https%3A%2F%2Fcdn.jsdelivr.net%2Fgh%2Fprojectnoonnu%2Fnoonfonts_20-04%401.0%2FKyoboHand.woff;sketch=1;disableMultiStroke=1;" parent="1" source="xq2FErhegeyca6-r9yFb-31" target="xq2FErhegeyca6-r9yFb-10" edge="1">
          <mxGeometry relative="1" as="geometry" />
        </mxCell>
        <mxCell id="xq2FErhegeyca6-r9yFb-31" value="내용: 입력받은 것&lt;br&gt;금액: 입력받은 것&lt;br&gt;종류: 입력받은 것" style="whiteSpace=wrap;html=1;rounded=0;fontSize=14;fontColor=#292929;fontFamily=KyoboHand;fontSource=https%3A%2F%2Fcdn.jsdelivr.net%2Fgh%2Fprojectnoonnu%2Fnoonfonts_20-04%401.0%2FKyoboHand.woff;sketch=1;disableMultiStroke=1;" parent="1" vertex="1">
          <mxGeometry x="940" y="730" width="120" height="60" as="geometry" />
        </mxCell>
        <mxCell id="xq2FErhegeyca6-r9yFb-32" value="파일에 색인 및&lt;br&gt;종류 기록" style="whiteSpace=wrap;html=1;rounded=0;fontSize=14;fontColor=#292929;fontFamily=KyoboHand;fontSource=https%3A%2F%2Fcdn.jsdelivr.net%2Fgh%2Fprojectnoonnu%2Fnoonfonts_20-04%401.0%2FKyoboHand.woff;sketch=1;disableMultiStroke=1;" parent="1" vertex="1">
          <mxGeometry x="1356" y="910" width="120" height="60" as="geometry" />
        </mxCell>
        <mxCell id="xq2FErhegeyca6-r9yFb-33" value="끝" style="ellipse;whiteSpace=wrap;html=1;rounded=0;fontSize=14;fillColor=#ffe6cc;strokeColor=#d79b00;fontFamily=KyoboHand;fontSource=https%3A%2F%2Fcdn.jsdelivr.net%2Fgh%2Fprojectnoonnu%2Fnoonfonts_20-04%401.0%2FKyoboHand.woff;sketch=1;disableMultiStroke=1;" parent="1" vertex="1">
          <mxGeometry x="590" y="720" width="120" height="80" as="geometry" />
        </mxCell>
        <mxCell id="xq2FErhegeyca6-r9yFb-34" value="main.js" style="text;html=1;align=center;verticalAlign=middle;resizable=0;points=[];autosize=1;fontSize=14;sketch=1;disableMultiStroke=1;fontFamily=KyoboHand;fontSource=https%3A%2F%2Fcdn.jsdelivr.net%2Fgh%2Fprojectnoonnu%2Fnoonfonts_20-04%401.0%2FKyoboHand.woff;strokeColor=#8E8AFF;" parent="1" vertex="1">
          <mxGeometry x="500" y="260" width="60" height="20" as="geometry" />
        </mxCell>
        <mxCell id="xq2FErhegeyca6-r9yFb-35" value="Handler" style="text;html=1;align=center;verticalAlign=middle;resizable=0;points=[];autosize=1;fontSize=14;fontFamily=KyoboHand;fontSource=https%3A%2F%2Fcdn.jsdelivr.net%2Fgh%2Fprojectnoonnu%2Fnoonfonts_20-04%401.0%2FKyoboHand.woff;" parent="1" vertex="1">
          <mxGeometry x="354" y="280" width="60" height="20" as="geometry" />
        </mxCell>
        <mxCell id="xq2FErhegeyca6-r9yFb-36" value="Clear notify" style="text;html=1;align=center;verticalAlign=middle;resizable=0;points=[];autosize=1;fontSize=14;fontFamily=KyoboHand;fontSource=https%3A%2F%2Fcdn.jsdelivr.net%2Fgh%2Fprojectnoonnu%2Fnoonfonts_20-04%401.0%2FKyoboHand.woff;" parent="1" vertex="1">
          <mxGeometry x="525" y="550" width="90" height="20" as="geometry" />
        </mxCell>
        <mxCell id="xq2FErhegeyca6-r9yFb-37" value="Write google sheet" style="text;html=1;align=center;verticalAlign=middle;resizable=0;points=[];autosize=1;fontSize=14;fontFamily=KyoboHand;fontSource=https%3A%2F%2Fcdn.jsdelivr.net%2Fgh%2Fprojectnoonnu%2Fnoonfonts_20-04%401.0%2FKyoboHand.woff;fillColor=#ffffff;" parent="1" vertex="1">
          <mxGeometry x="680" y="695" width="130" height="20" as="geometry" />
        </mxCell>
        <mxCell id="xq2FErhegeyca6-r9yFb-38" value="Notify new store" style="text;html=1;align=center;verticalAlign=middle;resizable=0;points=[];autosize=1;fontSize=14;fontFamily=KyoboHand;fontSource=https%3A%2F%2Fcdn.jsdelivr.net%2Fgh%2Fprojectnoonnu%2Fnoonfonts_20-04%401.0%2FKyoboHand.woff;fillColor=#ffffff;" parent="1" vertex="1">
          <mxGeometry x="1236" y="455" width="120" height="20" as="geometry" />
        </mxCell>
        <mxCell id="xq2FErhegeyca6-r9yFb-39" value="Add store info" style="text;html=1;align=center;verticalAlign=middle;resizable=0;points=[];autosize=1;fontSize=14;fontFamily=KyoboHand;fontSource=https%3A%2F%2Fcdn.jsdelivr.net%2Fgh%2Fprojectnoonnu%2Fnoonfonts_20-04%401.0%2FKyoboHand.woff;" parent="1" vertex="1">
          <mxGeometry x="1440" y="690" width="100" height="20" as="geometry" />
        </mxCell>
        <mxCell id="WAtK6OKdEQnZyJ43ct-P-1" style="edgeStyle=orthogonalEdgeStyle;rounded=0;orthogonalLoop=1;jettySize=auto;html=1;entryX=0.5;entryY=0;entryDx=0;entryDy=0;startArrow=classic;startFill=1;sketch=1;disableMultiStroke=1;disableMultiStrokeFill=0;" edge="1" parent="1" source="xq2FErhegeyca6-r9yFb-40" target="xq2FErhegeyca6-r9yFb-41">
          <mxGeometry relative="1" as="geometry" />
        </mxCell>
        <mxCell id="WAtK6OKdEQnZyJ43ct-P-3" value="&lt;font face=&quot;KyoboHand&quot; data-font-src=&quot;https://cdn.jsdelivr.net/gh/projectnoonnu/noonfonts_20-04@1.0/KyoboHand.woff&quot;&gt;Data class&lt;/font&gt;" style="edgeLabel;html=1;align=center;verticalAlign=middle;resizable=0;points=[];" vertex="1" connectable="0" parent="WAtK6OKdEQnZyJ43ct-P-1">
          <mxGeometry x="-0.1597" y="-2" relative="1" as="geometry">
            <mxPoint x="2" y="20.24" as="offset" />
          </mxGeometry>
        </mxCell>
        <mxCell id="xq2FErhegeyca6-r9yFb-40" value="Tasker" style="rounded=0;whiteSpace=wrap;html=1;shadow=0;sketch=1;disableMultiStroke=1;disableMultiStrokeFill=0;simplification=0;sketchStyle=rough;strokeColor=#d79b00;strokeWidth=1;fillColor=#ffe6cc;fontFamily=KyoboHand;fontSource=https%3A%2F%2Fcdn.jsdelivr.net%2Fgh%2Fprojectnoonnu%2Fnoonfonts_20-04%401.0%2FKyoboHand.woff;fontSize=14;" parent="1" vertex="1">
          <mxGeometry x="320" y="525" width="120" height="60" as="geometry" />
        </mxCell>
        <mxCell id="xq2FErhegeyca6-r9yFb-41" value="Javascript" style="rounded=0;whiteSpace=wrap;html=1;shadow=0;sketch=1;disableMultiStroke=1;disableMultiStrokeFill=0;simplification=0;sketchStyle=rough;strokeColor=#292929;strokeWidth=1;fillColor=none;fontFamily=KyoboHand;fontSource=https%3A%2F%2Fcdn.jsdelivr.net%2Fgh%2Fprojectnoonnu%2Fnoonfonts_20-04%401.0%2FKyoboHand.woff;fontSize=14;" parent="1" vertex="1">
          <mxGeometry x="320" y="715" width="120" height="60" as="geometry" />
        </mxCell>
        <mxCell id="meLbnnTgsmAjTQD1LtVd-6" style="edgeStyle=orthogonalEdgeStyle;rounded=0;sketch=1;disableMultiStroke=1;orthogonalLoop=1;jettySize=auto;html=1;entryX=0.5;entryY=1;entryDx=0;entryDy=0;" parent="1" source="meLbnnTgsmAjTQD1LtVd-1" target="xq2FErhegeyca6-r9yFb-31" edge="1">
          <mxGeometry relative="1" as="geometry">
            <mxPoint x="1120" y="760" as="targetPoint" />
            <Array as="points">
              <mxPoint x="1418" y="870" />
              <mxPoint x="1000" y="870" />
            </Array>
          </mxGeometry>
        </mxCell>
        <mxCell id="meLbnnTgsmAjTQD1LtVd-8" style="edgeStyle=orthogonalEdgeStyle;rounded=0;sketch=1;disableMultiStroke=1;orthogonalLoop=1;jettySize=auto;html=1;entryX=0.5;entryY=0;entryDx=0;entryDy=0;" parent="1" source="meLbnnTgsmAjTQD1LtVd-1" target="xq2FErhegeyca6-r9yFb-32" edge="1">
          <mxGeometry relative="1" as="geometry" />
        </mxCell>
        <mxCell id="meLbnnTgsmAjTQD1LtVd-1" value="수정 폼을 유저에게서&lt;br&gt;입력받는다" style="shape=document;whiteSpace=wrap;html=1;boundedLbl=1;rounded=0;fontSize=14;size=0.2222222222222222;fillColor=#ffe6cc;strokeColor=#d79b00;fontFamily=KyoboHand;fontSource=https%3A%2F%2Fcdn.jsdelivr.net%2Fgh%2Fprojectnoonnu%2Fnoonfonts_20-04%401.0%2FKyoboHand.woff;sketch=1;disableMultiStroke=1;" parent="1" vertex="1">
          <mxGeometry x="1340" y="715" width="155" height="90" as="geometry" />
        </mxCell>
        <mxCell id="meLbnnTgsmAjTQD1LtVd-7" value="Write with memo" style="text;html=1;align=center;verticalAlign=middle;resizable=0;points=[];autosize=1;fontSize=14;fontFamily=KyoboHand;fontSource=https%3A%2F%2Fcdn.jsdelivr.net%2Fgh%2Fprojectnoonnu%2Fnoonfonts_20-04%401.0%2FKyoboHand.woff;" parent="1" vertex="1">
          <mxGeometry x="1100" y="690" width="120" height="20" as="geometry" />
        </mxCell>
        <mxCell id="WAtK6OKdEQnZyJ43ct-P-6" value="Auth" style="rounded=0;whiteSpace=wrap;html=1;sketch=1;disableMultiStroke=1;strokeColor=#d79b00;fillColor=#ffe6cc;fontFamily=KyoboHand;fontSource=https%3A%2F%2Fcdn.jsdelivr.net%2Fgh%2Fprojectnoonnu%2Fnoonfonts_20-04%401.0%2FKyoboHand.woff;" vertex="1" parent="1">
          <mxGeometry x="795" y="835" width="50" height="30" as="geometry" />
        </mxCell>
      </root>
    </mxGraphModel>
  </diagram>
</mxfile>
